<svg width="226" height="86" viewBox="0 0 226 86" fill="none" xmlns="http://www.w3.org/2000/svg">
<path d="M8.79271 47.64C5.67072 50.5564 3.33529 53.9688 1.81271 57.9213C0.641962 60.9623 0.0201906 64.1137 0.0100805 67.3695C-0.00811764 73.1582 0.00401569 78.9469 0.0050267 84.7357C0.0050267 84.8481 0.0212038 84.9605 0.0313139 85.0981H14.7182C14.7283 84.9495 14.7445 84.821 14.7445 84.6925C14.7445 79.0875 14.7334 73.4835 14.7475 67.8785C14.7577 63.9902 16.2074 60.7093 19.1363 58.1251C21.5162 56.0259 24.3309 54.9447 27.5226 54.9406C36.5701 54.9266 45.6177 54.9356 54.6652 54.9356H55.2455V40.2871C55.0473 40.2871 54.836 40.2871 54.6237 40.2871C45.6773 40.2871 36.7309 40.2871 27.7845 40.2871C21.4212 40.2871 16.1215 35.93 14.9406 29.7306C13.6354 22.8777 18.3841 16.0921 25.349 14.8863C26.1234 14.7518 26.9201 14.6785 27.7056 14.6775C36.7198 14.6634 45.7329 14.6695 54.7471 14.6695C54.8967 14.6695 55.0453 14.6695 55.2384 14.6695V0.0239434C55.0989 0.0239434 54.9391 0.0239434 54.7794 0.0239434C45.5469 0.0249474 36.3134 -0.0453287 27.0808 0.0500459C19.9239 0.124338 13.7305 2.75868 8.54804 7.64186C4.29878 11.6456 1.5266 16.5318 0.514579 22.2623C-1.18897 31.9102 1.44268 40.275 8.44189 47.2364C8.53692 47.3308 8.63701 47.4211 8.73103 47.5165C8.75227 47.5376 8.75935 47.5727 8.79069 47.64H8.79271Z" fill="#3D5A80"/>
<path d="M70 34.7804V20.1711C69.8483 20.161 69.7038 20.144 69.5602 20.144C55.5952 20.143 41.6311 20.14 27.6661 20.145C23.3278 20.147 19.9622 23.7692 20.2796 28.0661C20.5486 31.7094 23.6807 34.6801 27.3527 34.7744C27.5882 34.7804 27.8238 34.7794 28.0604 34.7794C41.8232 34.7794 55.5861 34.7794 69.3479 34.7794H70V34.7804Z" fill="#3D5A80"/>
<path d="M20.2675 85.092H35.0029V60.4151C34.8422 60.407 34.6824 60.391 34.5217 60.391C32.2641 60.389 30.0065 60.3789 27.7479 60.391C23.5088 60.4141 20.2736 63.6377 20.2685 67.8442C20.2624 73.4161 20.2665 78.987 20.2655 84.5589C20.2655 84.7245 20.2655 84.8902 20.2655 85.092H20.2675Z" fill="#3D5A80"/>
<path d="M88.8064 3.56763H100.529C102.932 3.56763 104.998 3.92743 106.725 4.64704C108.466 5.36664 109.804 6.43166 110.74 7.84209C111.675 9.25251 112.143 10.9868 112.143 13.0448C112.143 14.7287 111.855 16.1751 111.28 17.3841C110.718 18.5786 109.92 19.5789 108.883 20.3848C107.862 21.1764 106.66 21.8096 105.278 22.2846L103.227 23.364H93.0377L92.9945 18.3123H100.572C101.709 18.3123 102.652 18.1109 103.4 17.7079C104.148 17.3049 104.71 16.7436 105.084 16.024C105.472 15.3044 105.667 14.4697 105.667 13.5198C105.667 12.5123 105.48 11.6416 105.105 10.9076C104.731 10.1736 104.163 9.61232 103.4 9.22373C102.637 8.83514 101.68 8.64085 100.529 8.64085H95.2828V35H88.8064V3.56763ZM106.379 35L99.2119 20.9893L106.055 20.9461L113.309 34.6978V35H106.379Z" fill="#3D5A80"/>
<path d="M129.349 29.7325V19.327C129.349 18.5786 129.227 17.9381 128.982 17.4056C128.737 16.8587 128.356 16.4342 127.838 16.1319C127.334 15.8297 126.679 15.6786 125.873 15.6786C125.182 15.6786 124.585 15.8009 124.081 16.0456C123.578 16.2759 123.189 16.6141 122.916 17.0602C122.642 17.492 122.506 18.0029 122.506 18.593H116.288C116.288 17.5999 116.518 16.6573 116.979 15.7649C117.439 14.8726 118.109 14.0883 118.987 13.4118C119.865 12.721 120.908 12.1813 122.117 11.7927C123.34 11.4041 124.708 11.2098 126.219 11.2098C128.032 11.2098 129.644 11.5121 131.054 12.1165C132.465 12.721 133.573 13.6277 134.379 14.8367C135.199 16.0456 135.61 17.5568 135.61 19.3702V29.3655C135.61 30.6464 135.689 31.697 135.847 32.5174C136.005 33.3233 136.236 34.0285 136.538 34.633V35H130.256C129.953 34.3667 129.723 33.5752 129.565 32.6253C129.421 31.661 129.349 30.6968 129.349 29.7325ZM130.169 20.7734L130.212 24.2923H126.737C125.916 24.2923 125.204 24.3858 124.6 24.5729C123.995 24.76 123.499 25.0263 123.11 25.3717C122.721 25.7027 122.434 26.0913 122.246 26.5374C122.074 26.9836 121.987 27.4729 121.987 28.0054C121.987 28.5379 122.11 29.0201 122.354 29.4518C122.599 29.8692 122.952 30.2002 123.412 30.4449C123.873 30.6752 124.412 30.7903 125.031 30.7903C125.967 30.7903 126.78 30.6032 127.471 30.229C128.162 29.8548 128.694 29.3943 129.068 28.8474C129.457 28.3005 129.658 27.7824 129.673 27.293L131.313 29.9268C131.083 30.5169 130.767 31.1285 130.364 31.7618C129.975 32.395 129.478 32.9923 128.874 33.5536C128.27 34.1005 127.543 34.5538 126.694 34.9136C125.844 35.2591 124.837 35.4318 123.671 35.4318C122.189 35.4318 120.843 35.1367 119.634 34.5466C118.44 33.9422 117.49 33.1146 116.785 32.064C116.094 30.999 115.748 29.7901 115.748 28.4372C115.748 27.2139 115.979 26.1273 116.439 25.1774C116.9 24.2275 117.576 23.4287 118.469 22.7811C119.375 22.1191 120.505 21.6225 121.858 21.2915C123.211 20.9461 124.779 20.7734 126.564 20.7734H130.169Z" fill="#3D5A80"/>
<path d="M154.219 29.4087V11.6416H160.436V35H154.586L154.219 29.4087ZM154.909 24.6161L156.744 24.5729C156.744 26.1273 156.564 27.5737 156.205 28.9121C155.845 30.2362 155.305 31.3876 154.586 32.3662C153.866 33.3305 152.959 34.0861 151.865 34.633C150.772 35.1655 149.484 35.4318 148.001 35.4318C146.864 35.4318 145.814 35.2734 144.849 34.9568C143.899 34.6258 143.079 34.1149 142.388 33.4241C141.712 32.7188 141.179 31.8193 140.791 30.7255C140.417 29.6173 140.229 28.2861 140.229 26.7317V11.6416H146.447V26.7749C146.447 27.4657 146.526 28.0486 146.684 28.5235C146.857 28.9985 147.094 29.3871 147.397 29.6893C147.699 29.9915 148.052 30.2074 148.454 30.337C148.872 30.4665 149.332 30.5312 149.836 30.5312C151.117 30.5312 152.124 30.2722 152.858 29.7541C153.607 29.236 154.132 28.5307 154.434 27.6384C154.751 26.7317 154.909 25.7243 154.909 24.6161ZM147.397 8.48973L151.628 1.84058H158.385L152.448 8.48973H147.397Z" fill="#3D5A80"/>
<path d="M171.748 1.84058V35H165.509V1.84058H171.748Z" fill="#3D5A80"/>
<path d="M95.2828 49.5676V81H88.8064V49.5676H95.2828ZM107.804 62.9955V68.0471H93.5126V62.9955H107.804ZM109.315 49.5676V54.6408H93.5126V49.5676H109.315Z" fill="#3D5A80"/>
<path d="M119.246 57.6416V81H113.007V57.6416H119.246ZM112.618 51.5537C112.618 50.647 112.935 49.8986 113.568 49.3086C114.201 48.7185 115.05 48.4235 116.115 48.4235C117.166 48.4235 118.008 48.7185 118.641 49.3086C119.289 49.8986 119.613 50.647 119.613 51.5537C119.613 52.4604 119.289 53.2088 118.641 53.7989C118.008 54.389 117.166 54.684 116.115 54.684C115.05 54.684 114.201 54.389 113.568 53.7989C112.935 53.2088 112.618 52.4604 112.618 51.5537Z" fill="#3D5A80"/>
<path d="M136.991 75.7325V65.327C136.991 64.5786 136.869 63.9382 136.624 63.4056C136.38 62.8587 135.998 62.4342 135.48 62.1319C134.976 61.8297 134.321 61.6786 133.515 61.6786C132.825 61.6786 132.227 61.8009 131.724 62.0456C131.22 62.2759 130.831 62.6141 130.558 63.0602C130.284 63.492 130.148 64.0029 130.148 64.593H123.93C123.93 63.5999 124.161 62.6573 124.621 61.7649C125.082 60.8726 125.751 60.0883 126.629 59.4118C127.507 58.721 128.55 58.1813 129.759 57.7927C130.982 57.4041 132.35 57.2098 133.861 57.2098C135.674 57.2098 137.286 57.5121 138.697 58.1165C140.107 58.721 141.215 59.6277 142.021 60.8367C142.842 62.0456 143.252 63.5568 143.252 65.3702V75.3655C143.252 76.6464 143.331 77.697 143.489 78.5174C143.648 79.3233 143.878 80.0285 144.18 80.633V81H137.898C137.596 80.3667 137.365 79.5752 137.207 78.6253C137.063 77.661 136.991 76.6968 136.991 75.7325ZM137.812 66.7734L137.855 70.2923H134.379C133.559 70.2923 132.846 70.3858 132.242 70.5729C131.637 70.76 131.141 71.0263 130.752 71.3717C130.364 71.7027 130.076 72.0913 129.889 72.5374C129.716 72.9836 129.63 73.4729 129.63 74.0054C129.63 74.5379 129.752 75.0201 129.997 75.4518C130.241 75.8692 130.594 76.2002 131.054 76.4449C131.515 76.6752 132.055 76.7903 132.674 76.7903C133.609 76.7903 134.422 76.6032 135.113 76.229C135.804 75.8548 136.336 75.3943 136.711 74.8474C137.099 74.3005 137.301 73.7824 137.315 73.293L138.956 75.9268C138.725 76.5168 138.409 77.1285 138.006 77.7618C137.617 78.395 137.121 78.9923 136.516 79.5536C135.912 80.1005 135.185 80.5538 134.336 80.9136C133.487 81.2591 132.479 81.4318 131.313 81.4318C129.831 81.4318 128.485 81.1367 127.277 80.5466C126.082 79.9422 125.132 79.1146 124.427 78.064C123.736 76.999 123.391 75.7901 123.391 74.4372C123.391 73.2139 123.621 72.1273 124.081 71.1774C124.542 70.2275 125.218 69.4287 126.111 68.7811C127.017 68.1191 128.147 67.6225 129.5 67.2915C130.853 66.9461 132.422 66.7734 134.206 66.7734H137.812Z" fill="#3D5A80"/>
<path d="M160.673 74.5451C160.673 74.099 160.544 73.696 160.285 73.3362C160.026 72.9764 159.544 72.6454 158.838 72.3431C158.148 72.0265 157.147 71.7387 155.838 71.4796C154.657 71.2206 153.556 70.8967 152.535 70.5081C151.527 70.1052 150.649 69.623 149.901 69.0617C149.167 68.5004 148.591 67.8384 148.174 67.0756C147.756 66.2985 147.548 65.4133 147.548 64.4203C147.548 63.4416 147.756 62.5205 148.174 61.657C148.606 60.7935 149.217 60.0307 150.009 59.3687C150.815 58.6922 151.793 58.1669 152.945 57.7927C154.111 57.4041 155.42 57.2098 156.874 57.2098C158.903 57.2098 160.645 57.5337 162.098 58.1813C163.566 58.8289 164.689 59.7213 165.466 60.8582C166.258 61.9808 166.653 63.2617 166.653 64.7009H160.436C160.436 64.0965 160.306 63.5568 160.047 63.0818C159.803 62.5925 159.414 62.2111 158.882 61.9376C158.363 61.6498 157.687 61.5059 156.852 61.5059C156.161 61.5059 155.564 61.6282 155.06 61.8729C154.557 62.1032 154.168 62.4198 153.895 62.8228C153.636 63.2113 153.506 63.6431 153.506 64.118C153.506 64.4779 153.578 64.8017 153.722 65.0895C153.88 65.363 154.132 65.6148 154.478 65.8451C154.823 66.0754 155.269 66.2913 155.816 66.4928C156.377 66.6798 157.068 66.8526 157.889 67.0109C159.572 67.3563 161.076 67.8096 162.4 68.3709C163.725 68.9178 164.775 69.6662 165.552 70.6161C166.329 71.5516 166.718 72.7821 166.718 74.3077C166.718 75.3439 166.488 76.2938 166.027 77.1573C165.567 78.0208 164.905 78.7764 164.041 79.4241C163.178 80.0573 162.141 80.5538 160.932 80.9136C159.738 81.2591 158.392 81.4318 156.895 81.4318C154.722 81.4318 152.88 81.0432 151.369 80.266C149.872 79.4888 148.735 78.503 147.958 77.3084C147.195 76.0995 146.814 74.8618 146.814 73.5953H152.707C152.736 74.4444 152.952 75.128 153.355 75.6461C153.772 76.1642 154.298 76.5384 154.931 76.7687C155.579 76.999 156.277 77.1141 157.025 77.1141C157.831 77.1141 158.5 77.0062 159.033 76.7903C159.565 76.56 159.968 76.2578 160.242 75.8836C160.529 75.495 160.673 75.0489 160.673 74.5451Z" fill="#3D5A80"/>
<path d="M180.405 76.5744C181.168 76.5744 181.844 76.4305 182.434 76.1427C183.024 75.8404 183.485 75.4231 183.816 74.8905C184.161 74.3436 184.341 73.7032 184.356 72.9692H190.206C190.192 74.6099 189.753 76.0707 188.889 77.3516C188.026 78.6181 186.867 79.6184 185.413 80.3523C183.96 81.072 182.334 81.4318 180.535 81.4318C178.721 81.4318 177.138 81.1295 175.785 80.5251C174.447 79.9206 173.331 79.0858 172.439 78.0208C171.547 76.9414 170.877 75.6893 170.431 74.2645C169.985 72.8253 169.762 71.2853 169.762 69.6446V69.0186C169.762 67.3635 169.985 65.8235 170.431 64.3987C170.877 62.9595 171.547 61.7074 172.439 60.6424C173.331 59.5629 174.447 58.721 175.785 58.1165C177.124 57.5121 178.692 57.2098 180.491 57.2098C182.405 57.2098 184.082 57.5768 185.521 58.3108C186.975 59.0448 188.112 60.0955 188.932 61.4627C189.767 62.8156 190.192 64.4203 190.206 66.2769H184.356C184.341 65.4997 184.176 64.7945 183.859 64.1612C183.557 63.528 183.111 63.0242 182.521 62.6501C181.945 62.2615 181.233 62.0672 180.383 62.0672C179.477 62.0672 178.735 62.2615 178.16 62.6501C177.584 63.0242 177.138 63.5424 176.821 64.2044C176.505 64.852 176.282 65.5932 176.152 66.428C176.037 67.2483 175.979 68.1119 175.979 69.0186V69.6446C175.979 70.5513 176.037 71.422 176.152 72.2568C176.267 73.0915 176.483 73.8327 176.8 74.4804C177.131 75.128 177.584 75.6389 178.16 76.0131C178.735 76.3873 179.484 76.5744 180.405 76.5744Z" fill="#3D5A80"/>
<path d="M199.878 47.8406V81H193.66V47.8406H199.878ZM198.992 68.5005H197.287C197.301 66.8741 197.517 65.3774 197.935 64.0101C198.352 62.6285 198.949 61.4339 199.726 60.4265C200.504 59.4046 201.432 58.6131 202.511 58.0518C203.605 57.4905 204.814 57.2098 206.138 57.2098C207.289 57.2098 208.333 57.3753 209.268 57.7064C210.218 58.023 211.031 58.5411 211.708 59.2607C212.399 59.9659 212.931 60.8942 213.305 62.0456C213.68 63.197 213.867 64.593 213.867 66.2337V81H207.606V66.1905C207.606 65.1543 207.455 64.3411 207.153 63.7511C206.865 63.1466 206.44 62.722 205.879 62.4774C205.332 62.2183 204.656 62.0888 203.85 62.0888C202.957 62.0888 202.195 62.2543 201.561 62.5853C200.943 62.9163 200.446 63.3769 200.072 63.9669C199.698 64.5426 199.424 65.219 199.251 65.9962C199.079 66.7734 198.992 67.6081 198.992 68.5005Z" fill="#3D5A80"/>
<path d="M225.157 57.6416V81H218.918V57.6416H225.157ZM218.53 51.5537C218.53 50.647 218.846 49.8986 219.48 49.3086C220.113 48.7185 220.962 48.4235 222.027 48.4235C223.078 48.4235 223.92 48.7185 224.553 49.3086C225.2 49.8986 225.524 50.647 225.524 51.5537C225.524 52.4604 225.2 53.2088 224.553 53.7989C223.92 54.389 223.078 54.684 222.027 54.684C220.962 54.684 220.113 54.389 219.48 53.7989C218.846 53.2088 218.53 52.4604 218.53 51.5537Z" fill="#3D5A80"/>
</svg>
